<svg id="Capa_1" enable-background="new 0 0 512 512" height="512" viewBox="0 0 512 512" width="512" xmlns="http://www.w3.org/2000/svg"><g><g><g><path d="m385.041 145.691h-33.301v-64.52c0-26.395-21.475-47.87-47.87-47.87s-47.87 21.475-47.87 47.87v64.52h-33.301v-64.52c0-44.758 36.413-81.171 81.171-81.171s81.171 36.413 81.171 81.171z" fill="#b3e59f"/></g><g><path d="m289.301 145.691h-33.301v-64.52c0-26.395-21.475-47.87-47.87-47.87s-47.87 21.475-47.87 47.87v64.52h-33.301v-64.52c0-44.758 36.413-81.171 81.171-81.171s81.171 36.413 81.171 81.171z" fill="#ccf49f"/></g></g><g><path d="m339.252 145.691v366.309h-264.626c-5.581 0-10.106-4.525-10.106-10.106v-346.097c0-5.581 4.525-10.106 10.106-10.106z" fill="#d57080"/><path d="m437.374 145.691h-98.122v366.309h98.122c5.581 0 10.106-4.525 10.106-10.106v-346.097c0-5.581-4.525-10.106-10.106-10.106z" fill="#cb5769"/><path d="m402.133 463.661v-317.97h-15.453v317.88l-47.428 38.48v9.949h12.264l42.796-34.722 41.182 34.722h1.88c5.581 0 10.106-4.525 10.106-10.106z" fill="#c63d4f"/></g></g></svg>